# xmcd
#
# Track frame offsets: 
#        150
#        12890
#        25260
#        37785
#        52661
#        65849
#        84950
#        99601
#
# Disc length: 1504 seconds
#
# Revision: 0
# Processed by: cddbd v1.5.2PL0 Copyright (c) Steve Scherf et al.
# Submitted via: ExactAudioCopy v0.95b4
#
DISCID=5305de08
DTITLE=Frank Adkins - Frank Adkins and Friends
DYEAR=2005
DGENRE=Modern Country
TTITLE0=Rub a Dub Dub
TTITLE1=West Virginia
TTITLE2=Pound,Pound
TTITLE3=Coming Home
TTITLE4=Oh Shift
TTITLE5=Memories you can't
TTITLE6=Broad Daylight
TTITLE7=Lets hit dance floor
EXTD=
EXTT0=
EXTT1=
EXTT2=
EXTT3=
EXTT4=
EXTT5=
EXTT6=
EXTT7=
PLAYORDER=
